<?xml version="1.0" encoding="UTF-8"?>
<svg xmlns="http://www.w3.org/2000/svg" width="1200" height="405" viewBox="0 0 1200 405">
<rect width="1200" height="405" fill="#FFFFFF"/>
<rect x="35" y="45" width="350" height="285" rx="12" fill="#F8FAFC" stroke="#D9DEE7" stroke-width="2"/>
<text x="53.0" y="80.0" text-anchor="start" font-family="Arial, Helvetica, sans-serif" font-size="22" font-weight="700" fill="#1F2937">A  One-complex reconstruction</text>
<rect x="415" y="45" width="350" height="285" rx="12" fill="#F8FAFC" stroke="#D9DEE7" stroke-width="2"/>
<text x="433.0" y="80.0" text-anchor="start" font-family="Arial, Helvetica, sans-serif" font-size="22" font-weight="700" fill="#1F2937">B  Observed-only routing</text>
<rect x="795" y="45" width="350" height="285" rx="12" fill="#F8FAFC" stroke="#D9DEE7" stroke-width="2"/>
<text x="813.0" y="80.0" text-anchor="start" font-family="Arial, Helvetica, sans-serif" font-size="22" font-weight="700" fill="#1F2937">C  Per-layer connectivity</text>
<line x1="95.0" y1="130.0" x2="137.0" y2="132.8" stroke="#9AA4B2" stroke-width="1.6" opacity="1.000"/>
<line x1="137.0" y1="132.8" x2="179.0" y2="134.0" stroke="#9AA4B2" stroke-width="1.6" opacity="1.000"/>
<line x1="179.0" y1="134.0" x2="221.0" y2="133.0" stroke="#9AA4B2" stroke-width="1.6" opacity="1.000"/>
<line x1="221.0" y1="133.0" x2="263.0" y2="130.3" stroke="#9AA4B2" stroke-width="1.6" opacity="1.000"/>
<line x1="263.0" y1="130.3" x2="305.0" y2="127.5" stroke="#9AA4B2" stroke-width="1.6" opacity="1.000"/>
<circle cx="95.0" cy="130.0" r="5.0" fill="#3478C7" stroke="#FFFFFF" stroke-width="1.2"/>
<circle cx="137.0" cy="132.8" r="5.0" fill="#3478C7" stroke="#FFFFFF" stroke-width="1.2"/>
<circle cx="179.0" cy="134.0" r="5.0" fill="#3478C7" stroke="#FFFFFF" stroke-width="1.2"/>
<circle cx="221.0" cy="133.0" r="5.0" fill="#3478C7" stroke="#FFFFFF" stroke-width="1.2"/>
<circle cx="263.0" cy="130.3" r="5.0" fill="#3478C7" stroke="#FFFFFF" stroke-width="1.2"/>
<circle cx="305.0" cy="127.5" r="5.0" fill="#3478C7" stroke="#FFFFFF" stroke-width="1.2"/>
<line x1="95.0" y1="226.9" x2="137.0" y2="229.6" stroke="#9AA4B2" stroke-width="1.6" opacity="1.000"/>
<line x1="137.0" y1="229.6" x2="179.0" y2="229.7" stroke="#9AA4B2" stroke-width="1.6" opacity="1.000"/>
<line x1="179.0" y1="229.7" x2="221.0" y2="227.2" stroke="#9AA4B2" stroke-width="1.6" opacity="1.000"/>
<line x1="221.0" y1="227.2" x2="263.0" y2="223.5" stroke="#9AA4B2" stroke-width="1.6" opacity="1.000"/>
<line x1="263.0" y1="223.5" x2="305.0" y2="220.6" stroke="#9AA4B2" stroke-width="1.6" opacity="1.000"/>
<circle cx="95.0" cy="226.9" r="5.0" fill="#E28B27" stroke="#FFFFFF" stroke-width="1.2"/>
<circle cx="137.0" cy="229.6" r="5.0" fill="#E28B27" stroke="#FFFFFF" stroke-width="1.2"/>
<circle cx="179.0" cy="229.7" r="5.0" fill="#E28B27" stroke="#FFFFFF" stroke-width="1.2"/>
<circle cx="221.0" cy="227.2" r="5.0" fill="#E28B27" stroke="#FFFFFF" stroke-width="1.2"/>
<circle cx="263.0" cy="223.5" r="5.0" fill="#E28B27" stroke="#FFFFFF" stroke-width="1.2"/>
<circle cx="305.0" cy="220.6" r="5.0" fill="#E28B27" stroke="#FFFFFF" stroke-width="1.2"/>
<line x1="137.0" y1="132.8" x2="95.0" y2="226.9" stroke="#C43D4D" stroke-width="2.6" opacity="1.000" stroke-dasharray="7 5"/>
<line x1="179.0" y1="134.0" x2="137.0" y2="229.6" stroke="#C43D4D" stroke-width="2.6" opacity="1.000" stroke-dasharray="7 5"/>
<line x1="221.0" y1="133.0" x2="179.0" y2="229.7" stroke="#C43D4D" stroke-width="2.6" opacity="1.000" stroke-dasharray="7 5"/>
<line x1="263.0" y1="130.3" x2="221.0" y2="227.2" stroke="#C43D4D" stroke-width="2.6" opacity="1.000" stroke-dasharray="7 5"/>
<text x="210.0" y="300.0" text-anchor="middle" font-family="Arial, Helvetica, sans-serif" font-size="18" font-weight="400" fill="#C43D4D">false cross-layer cells</text>
<circle cx="475.0" cy="130.0" r="5.0" fill="#3478C7" stroke="#FFFFFF" stroke-width="1.2"/>
<circle cx="517.0" cy="132.8" r="5.0" fill="#3478C7" stroke="#FFFFFF" stroke-width="1.2"/>
<circle cx="559.0" cy="134.0" r="5.0" fill="#3478C7" stroke="#FFFFFF" stroke-width="1.2"/>
<circle cx="601.0" cy="133.0" r="5.0" fill="#3478C7" stroke="#FFFFFF" stroke-width="1.2"/>
<circle cx="643.0" cy="130.3" r="5.0" fill="#3478C7" stroke="#FFFFFF" stroke-width="1.2"/>
<circle cx="685.0" cy="127.5" r="5.0" fill="#3478C7" stroke="#FFFFFF" stroke-width="1.2"/>
<circle cx="475.0" cy="226.9" r="5.0" fill="#E28B27" stroke="#FFFFFF" stroke-width="1.2"/>
<circle cx="517.0" cy="229.6" r="5.0" fill="#E28B27" stroke="#FFFFFF" stroke-width="1.2"/>
<circle cx="559.0" cy="229.7" r="5.0" fill="#E28B27" stroke="#FFFFFF" stroke-width="1.2"/>
<circle cx="601.0" cy="227.2" r="5.0" fill="#E28B27" stroke="#FFFFFF" stroke-width="1.2"/>
<circle cx="643.0" cy="223.5" r="5.0" fill="#E28B27" stroke="#FFFFFF" stroke-width="1.2"/>
<circle cx="685.0" cy="220.6" r="5.0" fill="#E28B27" stroke="#FFFFFF" stroke-width="1.2"/>
<line x1="590.0" y1="145.0" x2="590.0" y2="225.0" stroke="#667085" stroke-width="2.4" opacity="1.000" stroke-dasharray="5 5"/>
<text x="601.0" y="178.0" text-anchor="start" font-family="Arial, Helvetica, sans-serif" font-size="17" font-weight="400" fill="#667085">estimated gap</text>
<text x="590.0" y="270.0" text-anchor="middle" font-family="Arial, Helvetica, sans-serif" font-size="18" font-weight="400" fill="#1F2937">SNR, balance, cross-kNN</text>
<rect x="505" y="285" width="170" height="30" rx="15" fill="#E7F5F1" stroke="#16856B"/>
<text x="590.0" y="307.0" text-anchor="middle" font-family="Arial, Helvetica, sans-serif" font-size="17" font-weight="700" fill="#16856B">accept / rescan</text>
<polygon points="855.0,130.0 897.0,132.8 939.0,134.0" fill="#3478C7" fill-opacity="0.15" stroke="#3478C7" stroke-width="1.6"/>
<polygon points="897.0,132.8 939.0,134.0 981.0,133.0" fill="#3478C7" fill-opacity="0.15" stroke="#3478C7" stroke-width="1.6"/>
<polygon points="939.0,134.0 981.0,133.0 1023.0,130.3" fill="#3478C7" fill-opacity="0.15" stroke="#3478C7" stroke-width="1.6"/>
<polygon points="981.0,133.0 1023.0,130.3 1065.0,127.5" fill="#3478C7" fill-opacity="0.15" stroke="#3478C7" stroke-width="1.6"/>
<circle cx="855.0" cy="130.0" r="5.0" fill="#3478C7" stroke="#FFFFFF" stroke-width="1.2"/>
<circle cx="897.0" cy="132.8" r="5.0" fill="#3478C7" stroke="#FFFFFF" stroke-width="1.2"/>
<circle cx="939.0" cy="134.0" r="5.0" fill="#3478C7" stroke="#FFFFFF" stroke-width="1.2"/>
<circle cx="981.0" cy="133.0" r="5.0" fill="#3478C7" stroke="#FFFFFF" stroke-width="1.2"/>
<circle cx="1023.0" cy="130.3" r="5.0" fill="#3478C7" stroke="#FFFFFF" stroke-width="1.2"/>
<circle cx="1065.0" cy="127.5" r="5.0" fill="#3478C7" stroke="#FFFFFF" stroke-width="1.2"/>
<polygon points="855.0,226.9 897.0,229.6 939.0,229.7" fill="#E28B27" fill-opacity="0.15" stroke="#E28B27" stroke-width="1.6"/>
<polygon points="897.0,229.6 939.0,229.7 981.0,227.2" fill="#E28B27" fill-opacity="0.15" stroke="#E28B27" stroke-width="1.6"/>
<polygon points="939.0,229.7 981.0,227.2 1023.0,223.5" fill="#E28B27" fill-opacity="0.15" stroke="#E28B27" stroke-width="1.6"/>
<polygon points="981.0,227.2 1023.0,223.5 1065.0,220.6" fill="#E28B27" fill-opacity="0.15" stroke="#E28B27" stroke-width="1.6"/>
<circle cx="855.0" cy="226.9" r="5.0" fill="#E28B27" stroke="#FFFFFF" stroke-width="1.2"/>
<circle cx="897.0" cy="229.6" r="5.0" fill="#E28B27" stroke="#FFFFFF" stroke-width="1.2"/>
<circle cx="939.0" cy="229.7" r="5.0" fill="#E28B27" stroke="#FFFFFF" stroke-width="1.2"/>
<circle cx="981.0" cy="227.2" r="5.0" fill="#E28B27" stroke="#FFFFFF" stroke-width="1.2"/>
<circle cx="1023.0" cy="223.5" r="5.0" fill="#E28B27" stroke="#FFFFFF" stroke-width="1.2"/>
<circle cx="1065.0" cy="220.6" r="5.0" fill="#E28B27" stroke="#FFFFFF" stroke-width="1.2"/>
<text x="970.0" y="300.0" text-anchor="middle" font-family="Arial, Helvetica, sans-serif" font-size="18" font-weight="400" fill="#16856B">no cross-layer face is admissible</text>
<text x="600.0" y="375.0" text-anchor="middle" font-family="Arial, Helvetica, sans-serif" font-size="22" font-weight="700" fill="#1F2937">The method changes the admissible connectivity before scale selection.</text>
</svg>
